<?xml version="1.0" standalone="no"?>
<!DOCTYPE svg PUBLIC "-//W3C//DTD SVG 20010904//EN"
 "http://www.w3.org/TR/2001/REC-SVG-20010904/DTD/svg10.dtd">
<svg version="1.0" xmlns="http://www.w3.org/2000/svg"
 width="275.000000pt" height="183.000000pt" viewBox="0 0 275.000000 183.000000"
 preserveAspectRatio="xMidYMid meet">

<g transform="translate(0.000000,183.000000) scale(0.100000,-0.100000)"
fill="#000000" stroke="none">
<path d="M0 915 l0 -915 1375 0 1375 0 0 915 0 915 -1375 0 -1375 0 0 -915z
m1658 763 c-6 -18 -39 -18 -45 -1 -4 9 1 22 12 30 16 11 20 11 28 -2 5 -9 7
-21 5 -27z m-738 -63 c10 6 11 1 6 -21 -14 -55 -40 -70 -50 -29 -8 31 -26 24
-26 -10 0 -27 14 -33 55 -25 26 5 30 9 27 34 -3 19 0 26 7 21 6 -3 9 -10 6
-15 -3 -4 -1 -10 4 -12 20 -7 -15 -35 -51 -41 -44 -7 -61 9 -56 50 2 17 11 32
26 38 12 5 22 14 22 20 0 5 4 4 9 -4 5 -8 14 -10 21 -6z m470 -40 l0 -55 -60
0 -60 0 0 55 0 55 60 0 60 0 0 -55z m874 0 c8 -8 21 -12 29 -9 8 3 17 -2 21
-13 6 -15 8 -15 16 -3 8 13 10 12 10 -2 0 -24 -16 -30 -30 -13 -11 14 -15 14
-32 -2 -11 -10 -29 -18 -41 -18 -12 -1 -32 -7 -44 -14 -19 -10 -23 -9 -23 3 0
7 7 16 15 20 8 3 15 14 15 24 0 38 37 54 64 27z m-1760 -63 l13 -52 -45 0
c-38 0 -43 2 -37 18 4 9 11 31 15 48 17 71 33 67 54 -14z m1392 -23 c4 -6 11
-6 20 2 24 20 41 4 36 -35 -4 -38 -11 -43 -30 -24 -17 17 -42 -8 -42 -43 0
-16 -4 -29 -10 -29 -5 0 -10 13 -10 29 0 38 -22 56 -49 41 -20 -10 -21 -8 -21
28 l0 39 50 1 c27 0 52 -4 56 -9z m716 -126 c-5 -38 -25 -57 -51 -48 -17 5
-21 14 -21 46 0 22 5 39 11 39 6 0 8 7 5 16 -5 13 0 12 26 -5 27 -16 32 -26
30 -48z m-1077 7 c238 -82 371 -333 307 -580 -14 -53 -21 -65 -41 -70 -34 -8
-49 -35 -33 -60 15 -25 1 -26 -35 -3 -14 9 -34 35 -44 57 -13 31 -18 35 -18
19 -1 -32 15 -68 41 -93 19 -18 36 -76 18 -65 -3 2 -31 -16 -62 -40 -32 -24
-84 -53 -115 -66 -73 -28 -222 -37 -290 -18 -36 10 -48 10 -51 1 -2 -7 -10
-12 -18 -12 -8 0 -14 -7 -14 -15 0 -11 -12 -15 -45 -15 -40 0 -48 4 -64 31
-17 28 -18 35 -6 69 11 31 11 39 1 43 -7 3 -18 -4 -25 -15 -10 -16 -19 -19
-42 -14 -27 5 -29 3 -29 -24 0 -30 0 -30 -60 -30 -47 0 -60 3 -60 15 0 8 -9
15 -19 15 -29 0 -35 17 -21 66 13 47 42 76 66 67 8 -3 14 0 14 6 0 6 -4 11
-10 11 -5 0 -10 9 -10 20 0 20 15 25 43 14 9 -3 12 -14 9 -30 -4 -21 -1 -24
22 -24 21 0 30 -7 42 -35 14 -34 28 -44 38 -26 8 12 -80 141 -90 133 -4 -4 -4
-2 -1 4 3 6 -3 39 -13 73 -22 69 -26 178 -9 250 28 121 140 261 252 316 117
56 254 66 372 25z m-830 -136 c31 -31 -6 -81 -42 -58 -20 12 -30 44 -15 44 5
0 9 -8 8 -17 -2 -25 39 -30 48 -6 5 12 0 23 -16 35 -13 10 -18 18 -11 18 6 0
19 -7 28 -16z m1369 -24 c-7 -34 2 -39 22 -12 12 16 13 16 19 0 12 -30 28 -20
22 12 -5 22 -3 30 8 30 10 0 15 -10 15 -31 0 -17 5 -39 10 -50 10 -18 7 -19
-60 -19 -69 0 -71 1 -64 23 4 12 7 29 6 37 -1 23 6 40 17 40 6 0 8 -13 5 -30z
m-1720 -12 c14 -35 6 -58 -21 -58 -11 0 -13 -7 -8 -30 l7 -30 -66 0 c-61 0
-89 11 -66 25 5 3 10 19 10 36 0 17 5 29 13 29 8 0 19 11 25 24 10 23 29 31
74 35 11 0 23 -11 32 -31z m446 -13 c0 -25 -4 -45 -9 -45 -12 0 -18 27 -13 63
7 44 22 31 22 -18z m-105 14 c-10 -15 -25 -10 -19 6 4 8 10 12 15 9 5 -3 7
-10 4 -15z m64 -20 c14 -41 15 -39 -18 -39 -29 0 -29 1 -18 35 13 43 22 44 36
4z m-59 -38 c0 -4 -15 -5 -32 -3 -28 4 -30 6 -13 12 21 8 45 3 45 -9z m-104
-127 c-3 -9 -6 -21 -6 -27 0 -8 -3 -8 -11 0 -13 13 -5 43 12 43 6 0 8 -7 5
-16z m2093 -10 c16 -20 18 -31 11 -45 -25 -45 -76 -44 -100 1 -9 16 -6 25 14
45 32 32 49 32 75 -1z m-1887 -151 c-2 -12 2 -24 8 -28 17 -10 12 -63 -7 -75
-16 -9 -15 -10 5 -5 13 4 22 2 22 -4 0 -7 -31 -11 -85 -11 l-86 0 16 30 c8 16
15 38 15 50 0 13 7 20 20 20 14 0 20 -7 20 -22 0 -18 6 -23 30 -25 32 -2 40
17 19 47 -9 13 -10 12 -5 -2 3 -12 0 -18 -9 -18 -18 0 -18 -1 -4 39 13 37 46
40 41 4z m1301 5 c12 -13 25 -22 30 -20 15 5 6 -21 -17 -49 -14 -17 -27 -25
-31 -19 -4 6 -11 7 -17 4 -17 -11 -56 17 -61 43 -5 30 23 63 53 63 11 0 30
-10 43 -22z m-1883 -95 c0 -5 -4 -14 -9 -21 -7 -11 -9 -11 -14 1 -3 8 -3 18 0
21 9 8 23 7 23 -1z m-40 -23 c0 -5 -4 -10 -10 -10 -5 0 -10 5 -10 10 0 6 5 10
10 10 6 0 10 -4 10 -10z m80 0 c0 -5 -7 -10 -16 -10 -8 0 -12 5 -9 10 3 6 10
10 16 10 5 0 9 -4 9 -10z m2240 -26 c0 -9 -5 -14 -12 -12 -18 6 -21 28 -4 28
9 0 16 -7 16 -16z m-2330 -14 c0 -5 -9 -10 -20 -10 -11 0 -20 5 -20 10 0 6 9
10 20 10 11 0 20 -4 20 -10z m110 0 c0 -5 -4 -10 -9 -10 -6 0 -13 5 -16 10 -3
6 1 10 9 10 9 0 16 -4 16 -10z m1560 -24 c0 -8 -5 -18 -10 -21 -6 -4 -8 -15
-5 -25 6 -19 -22 -37 -36 -23 -15 15 13 83 33 83 10 0 18 -6 18 -14z m-1674
-33 c-10 -10 -19 5 -10 18 6 11 8 11 12 0 2 -7 1 -15 -2 -18z m95 14 c-1 -12
-15 -9 -19 4 -3 6 1 10 8 8 6 -3 11 -8 11 -12z m2025 -10 c-6 -26 2 -67 14
-67 4 0 7 7 6 16 -2 26 20 27 43 3 25 -27 26 -47 5 -77 -12 -18 -25 -22 -70
-22 -54 0 -54 0 -54 31 l0 31 -34 -21 c-35 -22 -56 -27 -56 -13 0 5 27 28 60
52 41 30 57 47 50 54 -18 18 -11 36 16 36 22 0 25 -3 20 -23z m-1676 -51 c0
-37 -10 -56 -31 -56 -28 0 -38 49 -14 67 28 20 45 16 45 -11z m1368 -28 c29
-32 43 -73 36 -107 -7 -34 -25 -44 -60 -35 -35 9 -30 27 6 19 24 -5 30 -3 30
10 0 28 -18 52 -45 59 -19 5 -25 13 -25 35 0 47 23 55 58 19z m-1218 -17 c0
-11 -3 -21 -7 -24 -5 -2 -3 -2 4 -1 20 5 37 -27 36 -67 -2 -48 -11 -65 -26
-50 -15 15 -54 14 -60 -1 -8 -19 -28 12 -23 35 2 9 0 15 -5 11 -12 -7 -11 10
3 41 6 14 18 25 25 25 8 0 13 8 12 18 -2 28 0 32 21 32 13 0 20 -7 20 -19z
m1340 9 c0 -5 8 -7 18 -3 16 5 16 5 0 -12 -9 -9 -21 -14 -27 -11 -14 9 -14 36
-1 36 6 0 10 -4 10 -10z m-246 -56 c3 -9 6 -45 6 -80 0 -38 4 -64 11 -64 5 0
8 4 5 9 -4 5 -2 11 4 13 6 2 13 27 17 56 3 29 10 55 16 59 7 4 7 -12 2 -48 -4
-30 -7 -68 -6 -86 2 -36 -18 -54 -33 -31 -8 14 -12 13 -23 -9 -7 -14 -13 -43
-13 -65 0 -23 -4 -37 -10 -33 -5 3 -10 26 -10 51 0 35 -3 44 -18 44 -14 0 -17
-9 -16 -50 1 -60 -14 -53 -27 12 -10 52 -12 222 -2 231 3 4 25 7 49 7 29 0 44
-5 48 -16z m-1343 -91 c1 -17 2 -17 6 0 4 13 15 17 57 17 l53 0 -4 -92 c-3
-51 -9 -97 -13 -101 -4 -5 -11 32 -15 82 -4 50 -11 91 -15 91 -8 0 -20 -83
-20 -142 0 -21 -4 -38 -10 -38 -6 0 -10 31 -10 74 0 70 -1 75 -22 78 -23 3
-40 48 -19 48 6 0 12 -8 12 -17z m1603 -2 c15 -6 24 -28 37 -87 10 -43 18 -86
18 -94 2 -32 -27 16 -49 83 -12 37 -25 67 -30 67 -4 0 -16 -33 -25 -72 -16
-69 -29 -97 -39 -87 -2 2 1 48 7 102 10 95 11 97 36 96 14 0 35 -4 45 -8z
m-1460 -26 c-4 -8 -8 -15 -10 -15 -2 0 -4 7 -4 15 0 8 4 15 10 15 5 0 7 -7 4
-15z m63 -135 c-2 -42 -20 -49 -25 -11 -4 27 4 51 17 51 6 0 10 -18 8 -40z
m43 6 c0 -19 -4 -38 -10 -41 -6 -4 -10 10 -10 34 0 23 5 41 10 41 6 0 10 -15
10 -34z m1170 -36 c0 -5 -7 -10 -16 -10 -8 0 -12 5 -9 10 3 6 10 10 16 10 5 0
9 -4 9 -10z m60 0 c0 -5 -10 -10 -22 -10 -19 0 -20 2 -8 10 19 13 30 13 30 0z
m260 0 c0 -5 -9 -10 -21 -10 -11 0 -17 5 -14 10 3 6 13 10 21 10 8 0 14 -4 14
-10z m70 0 c0 -5 -10 -10 -22 -10 -19 0 -20 2 -8 10 19 13 30 13 30 0z"/>
<path d="M885 1590 c-4 -6 -3 -16 3 -22 6 -6 12 -6 17 2 4 6 3 16 -3 22 -6 6
-12 6 -17 -2z"/>
<path d="M1280 1570 l0 -40 50 0 50 0 0 40 0 40 -50 0 -50 0 0 -40z m75 0 c0
-19 -42 -23 -49 -5 -3 8 -1 15 3 15 5 0 12 -6 14 -12 3 -8 6 -5 6 5 1 21 26
18 26 -3z"/>
<path d="M2224 1559 c-8 -14 11 -33 25 -25 11 7 4 36 -9 36 -5 0 -12 -5 -16
-11z"/>
<path d="M460 1515 c0 -8 7 -15 15 -15 8 0 15 7 15 15 0 8 -7 15 -15 15 -8 0
-15 -7 -15 -15z"/>
<path d="M1843 1474 c-3 -8 2 -23 11 -32 15 -15 17 -15 32 0 21 21 11 48 -16
48 -11 0 -23 -7 -27 -16z"/>
<path d="M1921 1476 c-9 -11 -9 -16 1 -22 7 -4 10 -4 6 1 -4 4 -3 14 3 22 6 7
9 13 6 13 -2 0 -10 -6 -16 -14z"/>
<path d="M2565 1396 c-22 -24 -3 -84 20 -63 5 5 10 20 10 32 0 28 -17 46 -30
31z"/>
<path d="M1143 1062 c-13 -2 -24 -6 -24 -10 -5 -27 -5 -52 0 -47 3 4 6 14 6
23 0 9 7 18 16 20 20 4 58 -30 40 -36 -6 -2 -11 -8 -11 -14 0 -7 5 -6 14 2 27
21 -4 67 -41 62z"/>
<path d="M1357 1029 c7 -7 15 -10 18 -7 3 3 -2 9 -12 12 -14 6 -15 5 -6 -5z"/>
<path d="M1136 988 c3 -5 10 -6 15 -3 13 9 11 12 -6 12 -8 0 -12 -4 -9 -9z"/>
<path d="M1181 933 c-1 -26 -11 -29 -30 -10 -10 10 -11 6 -5 -17 6 -26 5 -28
-12 -22 -15 6 -17 5 -6 -5 17 -18 15 -29 -5 -29 -17 -1 -17 -1 0 -11 9 -5 17
-14 17 -19 0 -6 -8 -10 -17 -11 -13 0 -12 -3 6 -10 19 -8 21 -12 11 -24 -10
-12 -9 -15 4 -15 19 0 21 -16 4 -23 -7 -3 0 -6 16 -6 25 -1 27 -3 15 -18 -12
-15 -12 -16 4 -10 24 9 44 -2 26 -15 -9 -5 -4 -6 15 -2 26 6 28 5 22 -12 -6
-15 -5 -17 5 -6 18 17 29 15 29 -5 1 -17 1 -17 14 0 7 9 16 17 20 17 3 0 6 -8
7 -17 0 -14 2 -15 6 -3 10 24 27 31 35 12 5 -14 7 -13 7 5 1 21 21 44 21 24 0
-6 5 -11 12 -11 9 0 9 3 0 12 -17 17 -15 41 3 34 8 -3 15 -1 15 4 0 6 -7 10
-15 10 -18 0 -20 26 -2 34 6 4 2 4 -11 2 -13 -3 -26 2 -32 12 -5 10 -10 12
-10 5 0 -7 -7 -13 -16 -13 -9 0 -12 5 -8 13 6 10 4 10 -7 0 -18 -17 -32 -16
-26 1 4 11 1 13 -10 9 -12 -5 -15 -2 -10 10 4 12 1 17 -11 17 -13 0 -14 2 -3
9 9 6 10 11 3 15 -6 4 -9 13 -6 20 3 7 -2 16 -11 20 -10 3 -15 12 -11 21 6 17
-9 21 -19 5 -10 -15 -23 -12 -28 8 -4 13 -5 11 -6 -5z m34 -31 c6 -4 17 -26
23 -49 14 -49 43 -73 87 -73 54 0 71 -34 35 -70 -27 -27 -94 -27 -138 0 -67
41 -95 137 -52 180 22 22 29 24 45 12z"/>
<path d="M1198 783 c7 -3 16 -2 19 1 4 3 -2 6 -13 5 -11 0 -14 -3 -6 -6z"/>
<path d="M1320 930 c6 -11 13 -20 16 -20 2 0 0 9 -6 20 -6 11 -13 20 -16 20
-2 0 0 -9 6 -20z"/>
<path d="M1601 834 c0 -11 3 -14 6 -6 3 7 2 16 -1 19 -3 4 -6 -2 -5 -13z"/>
<path d="M1105 600 c-4 -6 5 -10 20 -10 22 0 26 -4 20 -17 -5 -14 -3 -15 6 -6
6 6 9 19 6 27 -7 18 -42 22 -52 6z"/>
<path d="M295 1213 c-52 -13 -59 -43 -11 -43 19 0 36 -5 38 -12 2 -6 12 -9 21
-5 14 5 15 9 1 36 -9 17 -19 30 -22 30 -4 -1 -16 -4 -27 -6z"/>
<path d="M230 1130 c0 -16 7 -20 35 -20 28 0 35 4 35 20 0 16 -7 20 -35 20
-28 0 -35 -4 -35 -20z"/>
<path d="M730 1170 c0 -5 5 -10 10 -10 6 0 10 5 10 10 0 6 -4 10 -10 10 -5 0
-10 -4 -10 -10z"/>
<path d="M2615 1002 c-8 -8 -6 -22 3 -19 4 1 8 -2 9 -8 0 -5 -4 -9 -10 -7 -6
2 -5 -4 2 -12 14 -17 36 -11 25 6 -4 6 -1 8 7 6 8 -3 13 -11 12 -17 -4 -16 14
-13 21 4 3 8 0 14 -6 12 -5 -1 -12 6 -13 16 -3 18 10 24 18 7 3 -6 4 -5 3 2
-2 12 -60 21 -71 10z m40 -20 c-3 -3 -11 0 -18 7 -9 10 -8 11 6 5 10 -3 15 -9
12 -12z"/>
<path d="M798 787 c-3 -19 -2 -25 4 -19 6 6 8 18 6 28 -3 14 -5 12 -10 -9z"/>
<path d="M692 765 c-10 -22 -9 -25 8 -25 23 0 32 13 24 34 -9 23 -19 20 -32
-9z"/>
<path d="M745 760 c3 -5 8 -10 11 -10 2 0 4 5 4 10 0 6 -5 10 -11 10 -5 0 -7
-4 -4 -10z"/>
<path d="M2032 858 c-29 -29 4 -86 42 -72 18 7 27 55 14 72 -13 15 -40 16 -56
0z"/>
<path d="M2332 560 c0 -14 2 -19 5 -12 2 6 2 18 0 25 -3 6 -5 1 -5 -13z"/>
</g>
</svg>
